<svg width="218" height="42" viewBox="0 0 218 42" fill="none" xmlns="http://www.w3.org/2000/svg">
<path d="M1.8457 40.2876C0.615234 40.2876 0 39.6284 0 38.3101V4.45459C0 3.13623 0.615234 2.47705 1.8457 2.47705H11.707C18.0352 2.47705 22.4209 3.50537 24.8643 5.56201C27.3252 7.61865 28.5557 10.5366 28.5557 14.3159C28.5557 18.0952 27.3252 21.0132 24.8643 23.0698C22.4209 25.1265 18.0352 26.1548 11.707 26.1548H7.69922V38.3101C7.69922 39.6284 7.08398 40.2876 5.85352 40.2876H1.8457ZM7.69922 19.7212H11.6807C15.1963 19.7212 17.5869 19.3081 18.8525 18.4819C20.1182 17.6382 20.751 16.2495 20.751 14.3159C20.751 12.3823 20.1182 11.0024 18.8525 10.1763C17.5869 9.33252 15.1963 8.91064 11.6807 8.91064H7.69922V19.7212Z" fill="#FBFFFB"/>
<path d="M35.9648 40.2876C34.9102 40.2876 34.3828 39.7603 34.3828 38.7056V7.56592C34.3828 6.7749 34.5674 6.0542 34.9365 5.40381L36.9668 1.84424C37.3535 1.17627 37.8105 0.842285 38.3379 0.842285H40.1836C41.2383 0.842285 41.7656 1.36963 41.7656 2.42432V38.7056C41.7656 39.7603 41.2383 40.2876 40.1836 40.2876H35.9648Z" fill="#FBFFFB"/>
<path d="M47.4609 32.9048C47.4609 29.3892 49.1396 26.8403 52.4971 25.2583C55.8545 23.6763 59.6865 22.8325 63.9932 22.7271V21.6724C63.9932 20.0552 63.5889 18.9126 62.7803 18.2446C61.9717 17.5767 60.8467 17.2427 59.4053 17.2427C58.3857 17.2427 57.4805 17.3921 56.6895 17.6909C55.916 17.9722 55.2393 18.3062 54.6592 18.6929C54.0967 19.062 53.5869 19.4399 53.1299 19.8267C52.3213 20.5298 51.6533 20.5649 51.126 19.9321L48.9375 17.2427C48.3926 16.5747 48.5244 15.8892 49.333 15.186C49.9482 14.6411 50.6602 14.1665 51.4688 13.7622C52.2949 13.3579 53.3848 12.98 54.7383 12.6284C56.0918 12.2593 57.8496 12.0747 60.0117 12.0747C63.668 12.0747 66.4717 12.9185 68.4229 14.606C70.3916 16.2935 71.376 18.7808 71.376 22.0679V38.7056C71.376 39.7603 70.8486 40.2876 69.7939 40.2876H65.4697C64.5205 40.2876 64.0459 39.7603 64.0459 38.7056V37.9146H63.9932C62.9561 38.9165 61.708 39.6548 60.249 40.1294C58.8076 40.5864 57.4805 40.8149 56.2676 40.8149C53.3848 40.8149 51.1963 40.1118 49.7021 38.7056C48.208 37.2817 47.4609 35.3481 47.4609 32.9048ZM55.2656 32.7466C55.2656 33.3618 55.3887 33.8979 55.6348 34.355C55.8809 34.7944 56.2676 35.1196 56.7949 35.3306C57.3223 35.5415 57.9111 35.647 58.5615 35.647C59.458 35.647 60.3281 35.5239 61.1719 35.2778C62.0156 35.0317 62.9561 34.4517 63.9932 33.5376V27.8159C61.04 28.1499 59.0625 28.5806 58.0605 29.1079C57.0586 29.6353 56.3379 30.1802 55.8984 30.7427C55.4766 31.3052 55.2656 31.9731 55.2656 32.7466Z" fill="#FBFFFB"/>
<path d="M80.1562 40.2876C79.1016 40.2876 78.5742 39.7603 78.5742 38.7056V14.1841C78.5742 13.1294 79.1016 12.6021 80.1562 12.6021H84.3223C85.377 12.6021 85.9043 13.1294 85.9043 14.1841V15.7134H86.0098C86.8184 14.3247 87.8467 13.3755 89.0947 12.8657C90.3428 12.3384 91.8457 12.0747 93.6035 12.0747C96.3457 12.0747 98.6133 12.936 100.406 14.6587C102.199 16.3813 103.096 19.5278 103.096 24.0981V38.7056C103.096 39.7603 102.568 40.2876 101.514 40.2876H97.2949C96.2402 40.2876 95.7129 39.7603 95.7129 38.7056V25.9966C95.7129 22.1646 95.4492 19.7476 94.9219 18.7456C94.3945 17.7437 93.2607 17.2427 91.5205 17.2427C89.6748 17.2427 88.2861 17.9634 87.3545 19.4048C86.4229 20.8286 85.957 23.7993 85.957 28.3169V38.7056C85.957 39.7603 85.4297 40.2876 84.375 40.2876H80.1562Z" fill="#FBFFFB"/>
<path d="M109.292 17.8755C108.255 17.8755 107.736 17.436 107.736 16.5571V13.9204C107.736 13.0415 108.255 12.6021 109.292 12.6021H111.085V11.6792C111.085 10.8882 111.27 10.1675 111.639 9.51709L113.669 5.95752C114.056 5.28955 114.513 4.95557 115.04 4.95557H116.886C117.94 4.95557 118.468 5.48291 118.468 6.5376V12.6021H122.739C123.776 12.6021 124.295 13.0415 124.295 13.9204V16.5571C124.295 17.436 123.776 17.8755 122.739 17.8755H118.468V30.9536C118.468 32.7466 118.591 34.0386 118.837 34.8296C119.101 35.603 119.769 35.9897 120.841 35.9897C121.386 35.9897 122.001 35.9019 122.687 35.7261C123.372 35.5327 123.908 35.3481 124.295 35.1724C124.91 34.8911 125.314 35.0933 125.508 35.7788L126.299 38.7847C126.457 39.3823 126.229 39.8218 125.613 40.103C125.033 40.3667 124.233 40.604 123.214 40.8149C122.212 41.0435 121.201 41.1577 120.182 41.1577C117.668 41.1577 115.523 40.6392 113.748 39.6021C111.973 38.5649 111.085 36.4292 111.085 33.1948V17.8755H109.292Z" fill="#FBFFFB"/>
<path d="M149.191 40.2876C147.961 40.2876 147.346 39.6284 147.346 38.3101V4.45459C147.346 3.13623 147.961 2.47705 149.191 2.47705H159.053C165.381 2.47705 169.767 3.50537 172.21 5.56201C174.671 7.61865 175.901 10.5366 175.901 14.3159C175.901 18.0952 174.671 21.0132 172.21 23.0698C169.767 25.1265 165.381 26.1548 159.053 26.1548H155.045V38.3101C155.045 39.6284 154.43 40.2876 153.199 40.2876H149.191ZM155.045 19.7212H159.026C162.542 19.7212 164.933 19.3081 166.198 18.4819C167.464 17.6382 168.097 16.2495 168.097 14.3159C168.097 12.3823 167.464 11.0024 166.198 10.1763C164.933 9.33252 162.542 8.91064 159.026 8.91064H155.045V19.7212Z" fill="#FBFFFB"/>
<path d="M179.252 32.9048C179.252 29.3892 180.931 26.8403 184.288 25.2583C187.646 23.6763 191.478 22.8325 195.784 22.7271V21.6724C195.784 20.0552 195.38 18.9126 194.571 18.2446C193.763 17.5767 192.638 17.2427 191.196 17.2427C190.177 17.2427 189.271 17.3921 188.48 17.6909C187.707 17.9722 187.03 18.3062 186.45 18.6929C185.888 19.062 185.378 19.4399 184.921 19.8267C184.112 20.5298 183.444 20.5649 182.917 19.9321L180.729 17.2427C180.184 16.5747 180.315 15.8892 181.124 15.186C181.739 14.6411 182.451 14.1665 183.26 13.7622C184.086 13.3579 185.176 12.98 186.529 12.6284C187.883 12.2593 189.641 12.0747 191.803 12.0747C195.459 12.0747 198.263 12.9185 200.214 14.606C202.183 16.2935 203.167 18.7808 203.167 22.0679V38.7056C203.167 39.7603 202.64 40.2876 201.585 40.2876H197.261C196.312 40.2876 195.837 39.7603 195.837 38.7056V37.9146H195.784C194.747 38.9165 193.499 39.6548 192.04 40.1294C190.599 40.5864 189.271 40.8149 188.059 40.8149C185.176 40.8149 182.987 40.1118 181.493 38.7056C179.999 37.2817 179.252 35.3481 179.252 32.9048ZM187.057 32.7466C187.057 33.3618 187.18 33.8979 187.426 34.355C187.672 34.7944 188.059 35.1196 188.586 35.3306C189.113 35.5415 189.702 35.647 190.353 35.647C191.249 35.647 192.119 35.5239 192.963 35.2778C193.807 35.0317 194.747 34.4517 195.784 33.5376V27.8159C192.831 28.1499 190.854 28.5806 189.852 29.1079C188.85 29.6353 188.129 30.1802 187.689 30.7427C187.268 31.3052 187.057 31.9731 187.057 32.7466Z" fill="#FBFFFB"/>
<path d="M211.947 40.2876C210.893 40.2876 210.365 39.7603 210.365 38.7056V7.56592C210.365 6.7749 210.55 6.0542 210.919 5.40381L212.949 1.84424C213.336 1.17627 213.793 0.842285 214.32 0.842285H216.166C217.221 0.842285 217.748 1.36963 217.748 2.42432V38.7056C217.748 39.7603 217.221 40.2876 216.166 40.2876H211.947Z" fill="#FBFFFB"/>
</svg>
